# xmcd CD database file
#
# Track frame offsets:
#	183
#	17729
#	37121
#	53145
#	68608
#	82152
#	94679
#	110703
#	125830
#	140123
#	148906
#	165302
#	180047
#
# Disc length: 2604 seconds
#
# Revision: 0
# Processed by: cddbd v1.5.1PL2 Copyright (c) Steve Scherf et al.
# Submitted via: CDex 1.51
#
DISCID=b80a2a0d
DTITLE=Westwood - Here I Am
DYEAR=1996
DGENRE=Country
TTITLE0=Piece Of My Mind
TTITLE1=Here I Am
TTITLE2=I Feel Lucky
TTITLE3=That Ain't No Way To Go
TTITLE4=You Can Sleep While I Drive
TTITLE5=Strong Enough To Bend
TTITLE6=Runnaway Train
TTITLE7=Back On My Feet
TTITLE8=1 - 800 Used To Be
TTITLE9=Keep On Running
TTITLE10=Past The Point Of Rescue
TTITLE11=Every Little Thing
TTITLE12=Independence Day
EXTD=YEAR: 1996
EXTT0=
EXTT1=
EXTT2=
EXTT3=
EXTT4=
EXTT5=
EXTT6=
EXTT7=
EXTT8=
EXTT9=
EXTT10=
EXTT11=
EXTT12=
PLAYORDER=
